<svg fill="#3dadd9" height="20px" viewBox="-63 0 512 512.00105" width="20px" xmlns="http://www.w3.org/2000/svg"><path d="m383.964844 218.921875-10.867188-23.914063c-.613281-1.347656-.613281-2.894531 0-4.242187l10.867188-23.917969c3.574218-7.871094 1.734375-17.125-4.582032-23.03125l-19.191406-17.933594c-1.082031-1.011718-1.671875-2.441406-1.621094-3.921874l.882813-26.253907c.292969-8.640625-4.949219-16.488281-13.042969-19.523437l-24.59375-9.230469c-1.386718-.519531-2.480468-1.613281-3-3l-9.226562-24.59375c-3.039063-8.09375-10.914063-13.34375-19.527344-13.042969l-26.25.886719c-1.5.042969-2.910156-.542969-3.921875-1.625l-17.9375-19.191406c-5.902344-6.3164065-15.160156-8.15625-23.03125-4.578125l-23.914063 10.863281c-1.347656.613281-2.894531.609375-4.242187 0l-23.917969-10.863281c-7.871094-3.578125-17.125-1.7382815-23.03125 4.578125l-17.933594 19.191406c-1.011718 1.082031-2.433593 1.675781-3.921874 1.625l-26.253907-.886719c-8.644531-.285156-16.484375 4.953125-19.523437 13.046875l-9.230469 24.59375c-.519531 1.386719-1.613281 2.480469-3 3l-24.59375 9.226563c-8.09375 3.039062-13.335937 10.882812-13.042969 19.523437l.886719 26.253907c.046875 1.480468-.542969 2.910156-1.625 3.921874l-19.1875 17.933594c-6.3164062 5.90625-8.160156 15.160156-4.582031 23.03125l10.863281 23.914063c.613281 1.347656.613281 2.894531 0 4.246093l-10.863281 23.914063c-3.578125 7.871094-1.7382815 17.125 4.578125 23.03125l19.191406 17.9375c1.082031 1.011719 1.671875 2.4375 1.625 3.917969l-.886719 26.253906c-.292968 8.640625 4.949219 16.488281 13.042969 19.523438l24.59375 9.226562c1.386719.523438 2.480469 1.617188 3 3l9.230469 24.59375c.300781.804688.648437 1.582031 1.042968 2.324219l-61.695312 95.09375c-2.992188 4.609375-3.015625 10.347656-.0625 14.980469 2.949219 4.632812 8.15625 7.039062 13.597656 6.277343l50.222656-7.019531c.671876-.09375 1.339844.21875 1.695313.796875l28.738281 46.5625c2.507813 4.0625 6.855469 6.523437 11.628906 6.574219.054688 0 .105469.003906.160157.003906 4.710937 0 9.046875-2.351562 11.613281-6.3125l80.527344-124.121094 5.269531 2.394532c7.871094 3.574218 17.125 1.734374 23.03125-4.582032l17.9375-19.1875c1.011719-1.082031 2.449219-1.675781 3.917969-1.625l26.253906.886719c8.644531.292969 16.484375-4.949219 19.523438-13.046875l9.226562-24.59375c.519531-1.386719 1.617188-2.480469 3-3l24.59375-9.226562c8.097656-3.039063 13.339844-10.886719 13.046875-19.523438l-.886719-26.253906c-.050781-1.480469.542969-2.910156 1.625-3.921875l19.1875-17.9375c6.320313-5.902344 8.160156-15.15625 4.585938-23.027344zm-262.433594 277.078125-27.78125-45.015625c-3.480469-5.640625-9.964844-8.691406-16.535156-7.777344l-47.730469 6.671875 59.304687-91.40625c2.1875.714844 4.523438 1.058594 6.917969.980469l26.253907-.886719c1.488281-.050781 2.910156.542969 3.921874 1.625l17.9375 19.1875c3.894532 4.167969 9.25 6.386719 14.703126 6.386719 2.808593 0 5.648437-.589844 8.324218-1.804687l23.917969-10.863282c1.347656-.613281 2.894531-.613281 4.242187 0l4.835938 2.195313zm247.609375-265.007812-19.191406 17.9375c-4.246094 3.96875-6.566407 9.578124-6.371094 15.386718l.886719 26.25c.074218 2.203125-1.261719 4.203125-3.324219 4.976563l-24.59375 9.226562c-5.441406 2.042969-9.734375 6.332031-11.773437 11.773438l-9.230469 24.59375c-.773438 2.0625-2.789063 3.398437-4.972657 3.324219l-26.253906-.886719c-5.804687-.191407-11.417968 2.128906-15.382812 6.375l-17.9375 19.1875c-1.503906 1.609375-3.863282 2.082031-5.871094 1.167969l-23.914062-10.863282c-5.289063-2.40625-11.359376-2.40625-16.652344 0l-23.914063 10.863282c-2.007812.910156-4.363281.441406-5.867187-1.167969l-17.9375-19.1875c-3.8125-4.082031-9.140625-6.382813-14.703125-6.382813-.226563 0-.453125.003906-.683594.011719l-26.25.886719c-2.203125.074218-4.203125-1.261719-4.976563-3.324219l-9.226562-24.59375c-2.042969-5.441406-6.335938-9.734375-11.773438-11.773437l-24.59375-9.230469c-2.0625-.773438-3.398437-2.773438-3.324218-4.972657l.882812-26.253906c.199219-5.808594-2.125-11.417968-6.371094-15.382812l-19.1875-17.941406c-1.609374-1.503907-2.082031-3.859376-1.167968-5.867188l10.863281-23.914062c2.40625-5.289063 2.40625-11.359376 0-16.652344l-10.863281-23.914063c-.910156-2.003906-.441406-4.363281 1.167968-5.867187l19.1875-17.9375c4.246094-3.96875 6.570313-9.578125 6.375-15.386719l-.886718-26.253906c-.074219-2.199219 1.261718-4.199219 3.324218-4.972657l24.59375-9.226562c5.441407-2.042969 9.730469-6.332031 11.773438-11.773438l9.226562-24.59375c.773438-2.0625 2.765626-3.394531 4.976563-3.324218l26.253906.882812c5.816407.207032 11.414063-2.125 15.382813-6.371094l17.9375-19.1875c1.503906-1.613281 3.863281-2.078124 5.867187-1.167968l23.914063 10.863281c5.292968 2.402344 11.359375 2.402344 16.652344 0l23.914062-10.863281c2.007812-.910156 4.367188-.441406 5.871094 1.167968l17.9375 19.1875c3.964844 4.246094 9.589844 6.582032 15.382812 6.375l26.253906-.886718c2.171876-.070313 4.199219 1.261718 4.972657 3.324218l9.230469 24.59375c2.039062 5.441407 6.332031 9.730469 11.773437 11.773438l24.59375 9.226562c2.0625.777344 3.398437 2.773438 3.324219 4.976563l-.886719 26.253906c-.195313 5.808594 2.125 11.414063 6.371094 15.382813l19.191406 17.9375c1.609375 1.503906 2.078125 3.863281 1.167969 5.867187l-10.867188 23.914063c-2.402344 5.292968-2.402344 11.363281 0 16.652344l10.863282 23.914062c.914062 2.007812.445312 4.363281-1.164063 5.867188zm0 0"/><path d="m322.429688 200.535156c-4.113282-.46875-7.835938 2.472656-8.316407 6.585938-7.136719 61.464844-59.25 107.8125-121.226562 107.8125-62.011719 0-114.128907-46.378906-121.234375-107.878906-.476563-4.113282-4.195313-7.074219-8.3125-6.589844-4.113282.476562-7.066406 4.195312-6.589844 8.3125 7.980469 69.070312 66.507812 121.15625 136.136719 121.15625 69.589843 0 128.113281-52.054688 136.128906-121.085938.476563-4.113281-2.472656-7.835937-6.585937-8.3125zm0 0"/><path d="m192.886719 55.835938c-69.652344 0-128.183594 52.105468-136.144531 121.203124-.472657 4.113282 2.480468 7.832032 6.59375 8.308594.292968.035156.582031.050782.867187.050782 3.757813 0 7-2.820313 7.441406-6.644532 7.089844-61.523437 59.210938-107.917968 121.242188-107.917968 62.015625 0 114.136719 46.382812 121.234375 107.890624.476562 4.113282 4.191406 7.066407 8.3125 6.589844 4.117187-.472656 7.066406-4.195312 6.589844-8.308594-7.972657-69.078124-66.5-121.171874-136.136719-121.171874zm0 0"/><path d="m321.921875 369.351562c-2.253906-3.476562-6.902344-4.464843-10.375-2.210937-3.476563 2.253906-4.464844 6.898437-2.210937 10.375l46.949218 72.363281-47.726562-6.667968c-6.566406-.917969-13.058594 2.132812-16.535156 7.773437l-27.785157 45.015625-48.632812-74.957031c-2.253907-3.476563-6.898438-4.464844-10.371094-2.210938-3.476563 2.253907-4.464844 6.898438-2.210937 10.375l49.621093 76.480469c2.570313 3.960938 6.902344 6.3125 11.613281 6.3125h.160157c4.773437-.054688 9.121093-2.511719 11.632812-6.574219l28.734375-46.566406c.359375-.578125 1.027344-.890625 1.695313-.796875l50.222656 7.019531c5.4375.765625 10.648437-1.644531 13.601563-6.277343 2.949218-4.632813 2.925781-10.371094-.0625-14.976563zm0 0"/></svg>
