<?xml version="1.0" encoding="iso-8859-1"?>
<!-- Generator: Adobe Illustrator 19.0.0, SVG Export Plug-In . SVG Version: 6.00 Build 0)  -->
<svg fill="#3dadd9" height="20px" width="20px"  version="1.1" id="Layer_1" xmlns="http://www.w3.org/2000/svg" xmlns:xlink="http://www.w3.org/1999/xlink" x="0px" y="0px"
	 viewBox="0 0 512 512" style="enable-background:new 0 0 512 512;" xml:space="preserve">
<g>
	<g>
		<g>
			<path d="M381.247,230.014c0-6.218-5.059-11.277-11.277-11.277h-38.949c-6.218,0-11.277,5.059-11.277,11.277v25.078
				c0,6.218,5.059,11.277,11.277,11.277h38.949c6.218,0,11.277-5.059,11.277-11.277V230.014z M366.247,251.37h-31.502v-17.632
				h31.502V251.37z"/>
			<path d="M450.44,230.014c0-6.218-5.059-11.277-11.277-11.277h-38.949c-6.218,0-11.277,5.059-11.277,11.277v25.078
				c0,6.218,5.059,11.277,11.277,11.277h38.949c6.218,0,11.277-5.059,11.277-11.277V230.014z M435.44,251.37h-31.502v-17.632h31.502
				V251.37z"/>
			<path d="M381.247,302.804c0-6.218-5.059-11.277-11.277-11.277h-38.949c-6.218,0-11.277,5.059-11.277,11.277v25.078
				c0,6.218,5.059,11.277,11.277,11.277h38.949c6.218,0,11.277-5.059,11.277-11.277V302.804z M366.247,324.159h-31.502v-17.632
				h31.502V324.159z"/>
			<path d="M450.44,302.804c0-6.218-5.059-11.277-11.277-11.277h-38.949c-6.218,0-11.277,5.059-11.277,11.277v25.078
				c0,6.218,5.059,11.277,11.277,11.277h38.949c6.218,0,11.277-5.059,11.277-11.277V302.804z M435.44,324.159h-31.502v-17.632
				h31.502V324.159z"/>
			<path d="M369.97,353.517h-38.949c-6.218,0-11.277,5.059-11.277,11.277v25.078c0,6.218,5.059,11.277,11.277,11.277h38.949
				c6.218,0,11.277-5.059,11.277-11.277v-25.078C381.247,358.575,376.188,353.517,369.97,353.517z M366.247,386.149h-31.502v-17.632
				h31.502V386.149z"/>
			<path d="M450.44,364.794c0-6.218-5.059-11.277-11.277-11.277h-38.949c-6.218,0-11.277,5.059-11.277,11.277v25.078
				c0,6.218,5.059,11.277,11.277,11.277h38.949c6.218,0,11.277-5.059,11.277-11.277V364.794z M435.44,386.149h-31.502v-17.632
				h31.502V386.149z"/>
			<path d="M400.214,412.84c-6.218,0-11.277,5.059-11.277,11.277v25.078c0,6.218,5.059,11.277,11.277,11.277h38.949
				c6.218,0,11.277-5.059,11.277-11.277v-25.078c0-6.218-5.059-11.277-11.277-11.277H400.214z M435.44,445.472h-31.502V427.84
				h31.502V445.472z"/>
			<path d="M79.96,107.937h34.078c7.561,0,13.712-6.151,13.712-13.713V48.222c0-7.561-6.151-13.712-13.712-13.712H79.96
				c-7.561,0-13.712,6.151-13.712,13.712v46.002C66.248,101.785,72.399,107.937,79.96,107.937z M81.248,49.51h31.502v43.427H81.248
				V49.51z"/>
			<path d="M158.656,107.937h34.078c7.561,0,13.712-6.151,13.712-13.713V48.222c0-7.561-6.151-13.712-13.712-13.712h-34.078
				c-7.562,0-13.713,6.151-13.713,13.712v46.002C144.943,101.785,151.095,107.937,158.656,107.937z M159.943,49.51h31.503v43.427
				h-31.503V49.51z"/>
			<path d="M237.352,107.937h34.078c7.561,0,13.712-6.151,13.712-13.713V48.222c0-7.561-6.151-13.712-13.712-13.712h-34.078
				c-7.562,0-13.713,6.151-13.713,13.712v46.002C223.639,101.785,229.791,107.937,237.352,107.937z M238.639,49.51L238.639,49.51
				h31.503v43.427h-31.503V49.51z"/>
			<path d="M66.248,205.999c0,7.561,6.151,13.712,13.712,13.712h34.078c7.561,0,13.712-6.151,13.712-13.712v-46.002
				c0-7.561-6.151-13.712-13.712-13.712H79.96c-7.561,0-13.712,6.151-13.712,13.712V205.999z M81.248,161.284h31.502v43.427H81.248
				V161.284z"/>
			<path d="M144.943,205.999c0,7.561,6.151,13.712,13.713,13.712h34.078c7.561,0,13.712-6.151,13.712-13.712v-46.002
				c0-7.561-6.151-13.712-13.712-13.712h-34.078c-7.562,0-13.713,6.151-13.713,13.712V205.999z M159.943,161.284h31.503v43.427
				h-31.503V161.284z"/>
			<path d="M223.639,205.999L223.639,205.999c0,7.561,6.151,13.712,13.713,13.712h34.078c7.561,0,13.712-6.151,13.712-13.712
				v-46.002c0-7.561-6.151-13.712-13.712-13.712h-34.078c-7.562,0-13.713,6.151-13.713,13.712V205.999z M238.639,161.284
				L238.639,161.284h31.503v43.427h-31.503V161.284z"/>
			<path d="M66.248,317.773c0,7.561,6.151,13.712,13.712,13.712h34.078c7.561,0,13.712-6.151,13.712-13.712v-46.002
				c0-7.561-6.151-13.712-13.712-13.712H79.96c-7.561,0-13.712,6.151-13.712,13.712V317.773z M81.248,273.058h31.502v43.427H81.248
				V273.058z"/>
			<path d="M144.943,317.773c0,7.561,6.151,13.712,13.713,13.712h34.078c7.561,0,13.712-6.151,13.712-13.712v-46.002
				c0-7.561-6.151-13.712-13.712-13.712h-34.078c-7.562,0-13.713,6.151-13.713,13.712V317.773z M159.943,273.058h31.503v43.427
				h-31.503V273.058z"/>
			<path d="M223.639,317.773L223.639,317.773c0,7.561,6.151,13.712,13.713,13.712h34.078c7.561,0,13.712-6.151,13.712-13.712
				v-46.002c0-7.561-6.151-13.712-13.712-13.712h-34.078c-7.562,0-13.713,6.151-13.713,13.712V317.773z M238.639,273.058
				L238.639,273.058h31.503v43.427h-31.503V273.058z"/>
			<path d="M66.248,429.548c0,7.561,6.151,13.712,13.712,13.712h34.078c7.561,0,13.712-6.151,13.712-13.712v-46.002
				c0-7.561-6.151-13.712-13.712-13.712H79.96c-7.561,0-13.712,6.151-13.712,13.712V429.548z M81.248,384.833h31.502v43.427H81.248
				V384.833z"/>
			<path d="M223.639,429.548L223.639,429.548c0,7.561,6.151,13.712,13.713,13.712h34.078c7.561,0,13.712-6.151,13.712-13.712
				v-46.002c0-7.561-6.151-13.712-13.712-13.712h-34.078c-7.562,0-13.713,6.151-13.713,13.712V429.548z M238.639,384.833
				L238.639,384.833h31.503v43.427h-31.503V384.833z"/>
			<path d="M504.5,469.739h-30.748V295.597c0-4.142-3.358-7.5-7.5-7.5c-4.142,0-7.5,3.358-7.5,7.5v174.142h-80.387v-45.622
				c0-6.218-5.059-11.277-11.277-11.277h-29.125c-6.218,0-11.277,5.059-11.277,11.277v45.622h-15.254V205.54h144.814
				c1.382,0,2.506,1.126,2.506,2.511v57.573c0,4.142,3.358,7.5,7.5,7.5c4.142,0,7.5-3.358,7.5-7.5v-57.573
				c0-9.655-7.853-17.511-17.506-17.511h-37.242v-19.12c0-6.919-5.629-12.549-12.548-12.549h-46.623
				c-6.919,0-12.548,5.629-12.548,12.549v19.121h-35.852V25.012c0-12.167-9.895-22.064-22.058-22.064H60.306
				c-12.163,0-22.058,9.898-22.058,22.064v201.386c0,4.142,3.358,7.5,7.5,7.5c4.142,0,7.5-3.358,7.5-7.5V25.012
				c0-3.896,3.166-7.064,7.058-7.064h229.069c3.892,0,7.058,3.169,7.058,7.064V198.04v271.698h-89.986v-92.406
				c0-4.142-3.358-7.5-7.5-7.5h-46.503c-4.142,0-7.5,3.358-7.5,7.5v92.406H53.248V256.557c0-4.142-3.358-7.5-7.5-7.5
				c-4.142,0-7.5,3.358-7.5,7.5v213.181H7.5c-4.142,0-7.5,3.358-7.5,7.5v24.314c0,4.142,3.358,7.5,7.5,7.5h497
				c4.142,0,7.5-3.358,7.5-7.5v-24.314C512,473.096,508.642,469.739,504.5,469.739z M362.284,173.871h41.72v16.669h-41.72V173.871z
				 M341.687,427.84h21.678v41.898h-21.678V427.84z M159.943,384.833h31.503v84.906h-31.503V384.833z M497,494.052H15v-9.314h482
				V494.052z"/>
		</g>
	</g>
</g>
<g>
</g>
<g>
</g>
<g>
</g>
<g>
</g>
<g>
</g>
<g>
</g>
<g>
</g>
<g>
</g>
<g>
</g>
<g>
</g>
<g>
</g>
<g>
</g>
<g>
</g>
<g>
</g>
<g>
</g>
</svg>
