<?xml version="1.0" encoding="iso-8859-1"?>
<!-- Generator: Adobe Illustrator 19.0.0, SVG Export Plug-In . SVG Version: 6.00 Build 0)  -->
<svg fill="#3dadd9" height="20px" width="20px" version="1.1" id="Layer_1" xmlns="http://www.w3.org/2000/svg" xmlns:xlink="http://www.w3.org/1999/xlink" x="0px" y="0px"
	 viewBox="0 0 512 512" style="enable-background:new 0 0 512 512;" xml:space="preserve">
<g>
	<g>
		<g>
			<path d="M270.932,388.485c-4.142,0-7.5,3.358-7.5,7.5v9.697c0,4.142,3.358,7.5,7.5,7.5c4.142,0,7.5-3.358,7.5-7.5v-9.697
				C278.432,391.843,275.073,388.485,270.932,388.485z"/>
			<path d="M451.328,460.742h-26.556V131.313h24.014c4.765,0,9.176-2.577,11.513-6.724c2.332-4.14,2.251-9.236-0.21-13.299
				l-27.41-45.25c-2.147-3.542-6.758-4.675-10.301-2.529c-3.543,2.146-4.675,6.758-2.529,10.301l25.745,42.502H305.601V76.576
				c0-6.433-3.167-12.457-8.47-16.112l-28.617-19.722c-3.695-2.547-8.022-3.893-12.513-3.893c-4.49,0-8.817,1.346-12.513,3.893
				L214.87,60.464c-5.303,3.656-8.469,9.679-8.469,16.111v39.737H66.407L127.776,15h256.45l19.854,32.778
				c2.146,3.542,6.758,4.676,10.301,2.529c3.543-2.146,4.675-6.758,2.529-10.301L396.533,6.365C394.154,2.439,389.823,0,385.229,0
				H126.773c-4.594,0-8.925,2.438-11.303,6.364L51.912,111.29c-2.461,4.064-2.542,9.16-0.209,13.3
				c2.336,4.147,6.748,6.724,11.512,6.724h24.014v149.645c0,4.142,3.358,7.5,7.5,7.5c4.142,0,7.5-3.358,7.5-7.5V131.313h307.544
				v329.428H301.8V346.519c0-9.267-7.539-16.806-16.806-16.806h-57.988c-9.267,0-16.806,7.539-16.806,16.806v114.223H102.229
				V311.168c0-4.142-3.358-7.5-7.5-7.5c-4.142,0-7.5,3.358-7.5,7.5v149.574H60.672c-9.466,0-17.168,7.702-17.168,17.168v16.922
				c0,9.466,7.702,17.168,17.168,17.168h390.656c9.466,0,17.167-7.702,17.167-17.168v-16.923
				C468.497,468.443,460.794,460.742,451.328,460.742z M290.601,116.313h-69.2V76.576c0-1.5,0.741-2.906,1.982-3.761L252,53.093
				c2.362-1.627,5.64-1.628,8.002,0l28.617,19.722c1.241,0.855,1.982,2.262,1.982,3.761V116.313z M225.201,346.519
				c0-0.996,0.81-1.806,1.806-1.806h57.988c0.996,0,1.806,0.81,1.806,1.806v114.223h-61.6V346.519z M451.33,497H60.672
				c-1.195,0-2.168-0.973-2.168-2.168V477.91c0-1.195,0.973-2.168,2.168-2.168h390.656c1.195,0,2.167,0.972,2.167,2.167v16.923
				h0.001C453.497,496.027,452.525,497,451.33,497z"/>
			<path d="M122.193,408.077c0,7.205,5.862,13.067,13.067,13.067h36.994c7.205,0,13.067-5.862,13.067-13.067V342.78
				c0-7.205-5.862-13.067-13.067-13.067H135.26c-7.205,0-13.067,5.862-13.067,13.067V408.077z M137.193,344.713h33.127v61.431
				h-33.127V344.713z"/>
			<path d="M326.682,408.077c0,7.205,5.862,13.067,13.067,13.067h36.994c7.205,0,13.067-5.862,13.067-13.067V342.78
				c0-7.205-5.862-13.067-13.067-13.067h-36.994c-7.205,0-13.067,5.862-13.067,13.067V408.077z M341.681,344.713L341.681,344.713
				h33.127v61.431h-33.127V344.713z"/>
			<path d="M135.26,274.15h36.994c7.205,0,13.067-5.862,13.067-13.067v-65.297c0-7.206-5.862-13.067-13.067-13.067H135.26
				c-7.205,0-13.067,5.862-13.067,13.067v65.297C122.193,268.288,128.055,274.15,135.26,274.15z M137.193,197.719h33.127v61.431
				h-33.127V197.719z"/>
			<path d="M376.742,274.15c7.205,0,13.067-5.862,13.067-13.067v-65.297c0-7.206-5.862-13.067-13.067-13.067h-36.994
				c-7.205,0-13.067,5.862-13.067,13.067v65.297c0,7.205,5.861,13.067,13.067,13.067H376.742z M341.681,197.719L341.681,197.719
				h33.127v61.431h-33.127V197.719z"/>
			<path d="M237.503,274.15h36.994c7.205,0,13.067-5.862,13.067-13.067v-65.297c0-7.206-5.862-13.067-13.067-13.067h-36.994
				c-7.205,0-13.067,5.862-13.067,13.067v65.297C224.438,268.288,230.299,274.15,237.503,274.15z M239.438,197.719h33.127v61.431
				h-33.127V197.719z"/>
		</g>
	</g>
</g>
<g>
</g>
<g>
</g>
<g>
</g>
<g>
</g>
<g>
</g>
<g>
</g>
<g>
</g>
<g>
</g>
<g>
</g>
<g>
</g>
<g>
</g>
<g>
</g>
<g>
</g>
<g>
</g>
<g>
</g>
</svg>
